<?xml version="1.0" standalone="no"?><!DOCTYPE svg PUBLIC "-//W3C//DTD SVG 1.1//EN" "http://www.w3.org/Graphics/SVG/1.1/DTD/svg11.dtd"><svg t="1756171469370" class="icon" viewBox="0 0 1123 1024" version="1.1" xmlns="http://www.w3.org/2000/svg" p-id="1513" xmlns:xlink="http://www.w3.org/1999/xlink" width="219.3359375" height="200"><path d="M35.555556 1024A35.555556 35.555556 0 0 1 0 988.444444v-952.888888A35.555556 35.555556 0 0 1 35.555556 0h464.298666a35.555556 35.555556 0 0 1 24.803556 10.083556L704.227556 184.888889H1088a35.555556 35.555556 0 0 1 35.555556 35.555555v768a35.555556 35.555556 0 0 1-35.555556 35.555556zM71.111111 952.888889h981.333333V256H71.111111z m0-768h531.171556l-116.864-113.777778H71.111111z m248.888889 654.222222a35.555556 35.555556 0 0 1-35.555556-35.555555v-139.847112a35.555556 35.555556 0 1 1 71.111112 0V768h412.444444v-107.946667a35.555556 35.555556 0 1 1 71.111111 0V803.555556a35.555556 35.555556 0 0 1-35.555555 35.555555z m215.978667-126.136889l-106.666667-106.666666a35.555556 35.555556 0 0 1 50.275556-50.304L526.222222 602.638222v-223.857778a35.555556 35.555556 0 0 1 71.111111 0v222.549334L643.968 554.666667a35.555556 35.555556 0 1 1 50.275556 50.261333l-107.989334 107.989333a35.555556 35.555556 0 0 1-50.275555 0z" fill="#2557C6" p-id="1514"></path></svg>