<?xml version="1.0" standalone="no"?><!DOCTYPE svg PUBLIC "-//W3C//DTD SVG 1.1//EN" "http://www.w3.org/Graphics/SVG/1.1/DTD/svg11.dtd"><svg t="1756116108966" class="icon" viewBox="0 0 1024 1024" version="1.1" xmlns="http://www.w3.org/2000/svg" p-id="27701" xmlns:xlink="http://www.w3.org/1999/xlink" width="200" height="200"><path d="M917.89375679 207.57968209h-283.61826202a50.73672004 50.73672004 0 0 1-35.51570417-14.71364828l-72.04614232-72.04614232a50.73672004 50.73672004 0 0 0-35.51570293-14.71364828H106.10624321a101.4734389 101.4734389 0 0 0-101.47344009 101.47343888v608.84063582a101.4734389 101.4734389 0 0 0 101.47344009 101.47343888h811.78751358a101.4734389 101.4734389 0 0 0 101.47344009-101.47343888V309.05312101a101.4734389 101.4734389 0 0 0-101.47344009-101.47343892z m-308.98662266 311.52345826l-101.47343889 86.2524242 30.94939939 128.87126751a25.36835942 25.36835942 0 0 1-37.54517334 27.9051962l-113.65025162-69.5093067-113.65025163 69.5093067a25.87572702 25.87572702 0 0 1-38.05253976-27.9051962l30.94939823-128.87126751-101.47343892-86.2524242a25.36835942 25.36835942 0 0 1 14.2062819-44.64831248l132.42283828-10.14734475 50.73671887-123.29022874a25.36835942 25.36835942 0 0 1 46.67778287 0l50.73671886 123.29022874 131.91547189 10.14734475a25.36835942 25.36835942 0 0 1 17.25048387 44.64831248z" fill="#009E9D" p-id="27702"></path></svg>