<?xml version="1.0" standalone="no"?><!DOCTYPE svg PUBLIC "-//W3C//DTD SVG 1.1//EN" "http://www.w3.org/Graphics/SVG/1.1/DTD/svg11.dtd"><svg t="1756116016931" class="icon" viewBox="0 0 1024 1024" version="1.1" xmlns="http://www.w3.org/2000/svg" p-id="22006" xmlns:xlink="http://www.w3.org/1999/xlink" width="200" height="200"><path d="M800 800m-224 0a224 224 0 1 0 448 0 224 224 0 1 0-448 0Z" fill="#EF4D4D" p-id="22007"></path><path d="M904.128 724.512a68.8 68.8 0 0 0-103.456 6.272 68.8 68.8 0 0 0-103.424-6.272 70.528 70.528 0 0 0 0 99.008L800.672 928l103.456-104.512a70.464 70.464 0 0 0 0-98.976z" fill="#FFFFFF" p-id="22008"></path><path d="M960 128H512V64a64 64 0 0 0-64-64H64a64 64 0 0 0-64 64v256a64 64 0 0 1 64-64h896a64 64 0 0 1 64 64V192a64 64 0 0 0-64-64z" fill="#434854" p-id="22009"></path><path d="M512 800a288 288 0 0 1 288-288 287.296 287.296 0 0 1 224 107.168V320a64 64 0 0 0-64-64H64a64 64 0 0 0-64 64v640a64 64 0 0 0 64 64h555.168A287.296 287.296 0 0 1 512 800z" fill="#EDD87E" p-id="22010"></path><path d="M960 224H64a64 64 0 0 0-64 64v32a64 64 0 0 1 64-64h896a64 64 0 0 1 64 64V288a64 64 0 0 0-64-64z" fill="" p-id="22011"></path><path d="M128 192h768v64H128z" fill="#EAEAEA" p-id="22012"></path></svg>