<?xml version="1.0" standalone="no"?><!DOCTYPE svg PUBLIC "-//W3C//DTD SVG 1.1//EN" "http://www.w3.org/Graphics/SVG/1.1/DTD/svg11.dtd"><svg t="1756115753560" class="icon" viewBox="0 0 1029 1024" version="1.1" xmlns="http://www.w3.org/2000/svg" p-id="1493" xmlns:xlink="http://www.w3.org/1999/xlink" width="200.9765625" height="200"><path d="M610.573541 7.67856l38.392802 8.542399 31.130163 11.101918 25.179279 12.7976 19.1964 13.661439 14.493283 14.493282 10.654002 14.493283 6.814723 14.07736 4.255202 12.797601 1.695682 11.101918 0.863838 8.542399-0.415922 5.534962v227.797288l-2.143598 26.874961-5.534962 23.451603-8.958321 19.612322-11.101918 16.220959-12.797601 13.213522-14.07736 10.654003-14.941199 8.094482-14.941198 5.982878-14.077361 4.255202-12.7976 2.975442-11.101918 1.695682-8.958321 0.863838h-254.672249l-29.434481 2.143599-25.179279 5.982878-21.339998 9.374242-17.500719 11.51784-14.077361 13.661439-11.51784 14.941198-8.542398 15.357121-6.3988 15.773043-4.255203 14.941198-2.975442 13.661439-1.695682 11.51784-0.863838 8.95832v130.535525H137.830181l-8.95832-1.27976-11.933763-2.975442-13.661438-5.11904-14.941199-7.678561-15.35712-11.101918-15.357121-15.357121-14.941199-19.612322-13.661438-25.179279-11.933762-31.130163-8.958321-37.528964-5.982878-44.791601-2.143598-52.470162 2.55952-52.05424 6.814722-44.375679 10.238081-37.113042 13.661438-30.298319 15.357121-24.315441 17.052802-18.780478 17.916641-14.077361 17.916641-10.23808 17.052802-6.814722 15.357121-4.255203 13.661438-2.143598 10.238081-0.415922h6.814722l2.55952 0.415922h348.094732V230.77273H266.158119l-0.415922-117.322002-0.863838-15.773043 2.143598-14.493282 4.703119-13.213523 7.262638-11.933762 10.654002-11.101918 13.213523-9.822159 16.220958-8.542398 18.780479-7.67856 21.755921-6.3988 24.731363-5.119041 27.290882-4.255202 30.29832-2.55952 32.857839-1.695682L510.624282 0l54.165844 2.143598z m-268.749609 84.464163l-9.822158 14.077361-3.423358 17.500718 3.423358 17.500719 9.822158 14.493282 14.077361 9.374243 17.500718 3.83928 17.500719-3.83928 14.07736-9.374243 9.822159-14.493282 3.423358-17.500719-3.423358-17.500718-9.822159-14.077361-14.07736-9.374242-17.500719-3.83928-17.500718 3.83928z m558.391302 168.512404l11.933762 2.55952 13.661439 5.11904 14.941198 7.678561 15.357121 11.51784 15.35712 14.941199 14.941199 20.060238 13.661438 25.179279 11.933763 31.130163 8.95832 37.528964 5.982878 44.375679 2.143598 52.470162-2.55952 52.470162-6.814722 44.375679-10.238081 36.69712-13.661438 30.298319-15.357121 24.315441-17.052802 19.1964-17.916641 14.077361-17.91664 10.23808-17.052803 6.814722-15.357121 3.839281-13.661438 2.143598-10.23808 0.863838-6.814723-0.415922h-350.654252v34.969443h249.137287l0.415922 117.737924 0.863838 15.357121-2.143598 14.493282-4.703118 13.213523-7.262639 12.381678-10.654002 10.654002-13.213522 10.238081-16.220959 8.542398-18.780479 7.262638-21.75592 6.3988-24.731363 5.534963-27.290883 3.83928-30.298319 2.975442-32.85784 1.695682-35.833281 0.415922-54.165844-1.695682-45.655439-5.982878-38.392802-8.542399-31.130163-10.654002-25.179279-12.7976-19.1964-14.077361-14.493283-14.493282-10.654002-14.493283-6.814722-14.07736-4.255203-12.797601-1.695682-10.654002-0.863838-8.542399 0.415922-5.534962v-227.797288l2.143598-27.290883 5.534963-23.035681 8.95832-19.612322 11.101918-16.220959 12.797601-13.661438 14.07736-10.238081 14.941199-8.542398 14.941198-5.982878 14.077361-4.255202 12.7976-2.55952 11.101919-1.695682 8.95832-0.863838 5.534962-0.415922h249.137287l29.434481-2.143599 25.179279-5.982878 21.339999-8.95832 17.500718-11.933762 14.077361-13.661439 11.51784-14.941198 8.542398-15.357121 6.398801-15.357121 4.255202-14.941198 2.975442-13.661439 1.695682-11.933762 0.863838-8.95832v-130.535525h89.167281l5.982878 0.415922z m-275.980254 607.886022l-9.822158 14.07736-3.423359 17.500719 3.423359 17.500718 9.822158 14.077361 14.07736 9.822158 17.500719 3.423358 17.500719-3.423358 14.07736-9.822158 9.822159-14.077361 3.423358-17.500718-3.423358-17.500719-9.822159-14.07736-14.07736-9.822159-17.500719-3.423358-17.500719 3.423358z" fill="#3776AB" p-id="1494"></path></svg>